<?xml version="1.0" encoding="utf-8"?>
<!-- Generated by IcoMoon.io -->
<!DOCTYPE svg PUBLIC "-//W3C//DTD SVG 1.1//EN" "http://www.w3.org/Graphics/SVG/1.1/DTD/svg11.dtd">
<svg version="1.1" xmlns="http://www.w3.org/2000/svg" xmlns:xlink="http://www.w3.org/1999/xlink" width="40" height="40" viewBox="0 0 40 40">
<path d="M33.8 9.9c0-1.9-.7-3.5-2-4.9-1.2-1.2-2.4-1.8-3.9-1.9h-21c-1.9-.1-3.5.6-4.9 1.9-.9.9-1.4 1.9-1.7 3-.2.6-.3 1.3-.3 2v20c0 1.9.7 3.5 2 4.9 1.2 1.2 2.4 1.8 3.9 1.9h21c1.9 0 3.5-.7 4.9-2 .9-.9 1.5-1.9 1.8-3 .2-.6.3-1.3.3-2v-19.9zm-26.8 23.9c-1.1 0-2-.4-2.7-1.1-.8-.7-1.2-1.6-1.2-2.7v-20c0-1.1.4-2 1.1-2.7.8-.8 1.7-1.2 2.7-1.2h19.9c1.1 0 2 .4 2.7 1.1.8.7 1.2 1.6 1.2 2.7v20c0 1.1-.4 2-1.1 2.7-.8.8-1.7 1.2-2.7 1.2h-19.9z"></path>
</svg>
