<?xml version="1.0" encoding="utf-8"?>
<!-- Generated by IcoMoon.io -->
<!DOCTYPE svg PUBLIC "-//W3C//DTD SVG 1.1//EN" "http://www.w3.org/Graphics/SVG/1.1/DTD/svg11.dtd">
<svg version="1.1" xmlns="http://www.w3.org/2000/svg" xmlns:xlink="http://www.w3.org/1999/xlink" width="40" height="40" viewBox="0 0 40 40">
<path d="M33.4 21.7l-.3-.1c-.2 0-.4.1-.6.2l-1.5 1.6c-.1.1-.2.3-.2.5v6.1c0 1.1-.4 2-1.1 2.7-.8.8-1.7 1.1-2.7 1.1h-20c-1.1 0-2-.4-2.7-1.1-.8-.7-1.2-1.6-1.2-2.7v-20c0-1.1.4-2 1.1-2.7.8-.8 1.7-1.2 2.7-1.2h20c.4 0 .7 0 1.1.1h.2c.2 0 .4-.1.6-.2l1.2-1.1c.2-.2.3-.4.2-.7 0-.3-.2-.4-.4-.6-.9-.4-1.8-.6-2.8-.6h-20c-2 .1-3.6.7-5 2.1-1.4 1.4-2 3-2 4.9v20c0 1.9.7 3.5 2 4.9 1.4 1.4 3 2 4.9 2h20c1.9 0 3.5-.7 4.9-2 1.4-1.4 2-3 2-4.9v-7.6c.1-.4-.1-.6-.4-.7zm6.6-12.5c0-.5-.2-1-.6-1.4l-2.6-2.6c-.4-.4-.8-.6-1.4-.6s-1 .2-1.4.6l-15.5 15.6-6.3-6.3c-.4-.4-.8-.6-1.4-.6-.5 0-1 .2-1.4.6l-2.6 2.6c-.4.4-.6.8-.6 1.4s.2 1 .6 1.4l10.3 10.3c.4.4.8.6 1.4.6.5 0 1-.2 1.4-.6l19.6-19.6c.3-.4.5-.8.5-1.4z"></path>
</svg>
